<?xml version="1.0" standalone="no"?>
<!DOCTYPE svg PUBLIC "-//W3C//DTD SVG 20010904//EN"
 "http://www.w3.org/TR/2001/REC-SVG-20010904/DTD/svg10.dtd">
<svg version="1.0" xmlns="http://www.w3.org/2000/svg"
 width="200.000000pt" height="200.000000pt" viewBox="0 0 200.000000 200.000000"
 preserveAspectRatio="xMidYMid meet">

<g transform="translate(0.000000,200.000000) scale(0.100000,-0.100000)"
fill="#000000" stroke="none">
<path d="M1000 1390 c0 -5 -7 -10 -16 -10 -13 0 -14 -3 -4 -15 6 -8 9 -18 6
-23 -3 -6 5 -9 19 -8 16 0 25 7 25 18 0 9 6 19 13 21 7 3 5 6 -5 6 -10 1 -18
6 -18 11 0 6 -4 10 -10 10 -5 0 -10 -4 -10 -10z"/>
<path d="M830 1330 c0 -5 -7 -10 -16 -10 -13 0 -14 -3 -4 -15 7 -8 9 -22 6
-31 -5 -14 -4 -15 8 -5 8 7 19 10 23 8 5 -3 13 6 20 19 9 19 8 24 -3 24 -8 0
-14 5 -14 10 0 6 -4 10 -10 10 -5 0 -10 -4 -10 -10z"/>
<path d="M1150 1329 c0 -5 -7 -9 -16 -9 -13 0 -14 -3 -4 -15 7 -8 9 -22 6 -31
-5 -14 -4 -15 9 -4 12 10 18 10 30 0 13 -11 14 -10 9 4 -3 9 -2 22 4 29 8 9 4
15 -14 24 -13 6 -24 7 -24 2z"/>
<path d="M740 1030 c0 -173 1 -180 20 -180 15 0 20 7 20 25 l0 25 220 0 220 0
0 -25 c0 -18 5 -25 20 -25 19 0 20 7 20 115 0 108 -1 115 -20 115 -18 0 -20
-7 -20 -55 l0 -55 -191 0 -191 0 -29 29 c-28 28 -29 33 -29 120 0 84 -1 91
-20 91 -19 0 -20 -7 -20 -180z"/>
<path d="M810 1056 c0 -17 49 -66 66 -66 25 0 24 18 -2 49 -26 32 -64 42 -64
17z"/>
<path d="M965 1025 c-22 -8 -41 -15 -42 -15 -2 0 -3 -4 -3 -10 0 -6 53 -10
140 -10 77 0 140 4 140 8 0 33 -168 52 -235 27z"/>
<path d="M632 748 c8 -7 25 -39 38 -70 12 -32 28 -58 35 -58 7 0 20 20 29 45
10 25 21 43 25 41 4 -3 14 -23 21 -46 18 -55 36 -48 66 24 13 33 30 64 37 68
7 5 0 8 -18 8 -16 0 -25 -4 -19 -8 8 -5 6 -22 -9 -59 -11 -29 -23 -53 -26 -53
-4 0 -15 23 -25 51 -16 43 -17 53 -5 60 9 6 1 9 -25 9 -34 0 -37 -2 -23 -12
16 -12 15 -16 -1 -60 -9 -27 -20 -48 -23 -48 -10 0 -49 101 -43 111 3 5 -7 9
-22 9 -24 0 -26 -2 -12 -12z"/>
<path d="M1240 745 c0 -8 5 -15 10 -15 6 0 10 7 10 15 0 8 -4 15 -10 15 -5 0
-10 -7 -10 -15z"/>
<path d="M890 700 c-23 -23 -25 -40 -7 -62 16 -21 38 -27 62 -17 18 7 17 8 -6
8 -25 1 -49 17 -49 33 0 4 16 8 35 8 34 0 49 20 25 35 -6 3 -7 -1 -4 -9 5 -13
-1 -16 -27 -16 l-34 1 24 19 c13 11 18 20 12 20 -6 0 -20 -9 -31 -20z"/>
<path d="M1054 707 c14 -10 17 -23 14 -50 -3 -29 -1 -37 12 -37 13 0 15 8 12
38 -5 42 -18 62 -40 62 -13 0 -13 -2 2 -13z"/>
<path d="M1137 709 c-9 -6 -15 -15 -11 -20 3 -6 11 -3 19 7 18 25 45 11 45
-24 0 -15 -4 -32 -10 -38 -6 -6 -1 -10 14 -12 23 -2 23 0 14 40 -12 56 -33 69
-71 47z"/>
<path d="M1298 709 c-27 -15 -22 -28 18 -45 24 -10 34 -20 30 -30 -3 -7 -1
-14 3 -14 15 0 20 28 8 38 -7 5 -22 13 -34 16 -27 9 -29 21 -5 35 9 6 13 10 7
10 -5 0 -18 -4 -27 -10z"/>
<path d="M995 664 c0 -26 5 -44 11 -44 6 0 9 10 7 24 -3 13 0 32 5 43 8 15 7
19 -6 20 -14 1 -17 -8 -17 -43z"/>
<path d="M1340 700 c0 -5 5 -10 10 -10 6 0 10 5 10 10 0 6 -4 10 -10 10 -5 0
-10 -4 -10 -10z"/>
<path d="M1133 663 c-18 -7 -16 -43 1 -43 9 0 12 7 9 19 -3 13 1 21 14 24 11
3 12 5 3 5 -8 0 -21 -2 -27 -5z"/>
<path d="M1285 630 c3 -5 11 -10 16 -10 6 0 7 5 4 10 -3 6 -11 10 -16 10 -6 0
-7 -4 -4 -10z"/>
<path d="M825 497 c0 -58 3 -73 15 -74 12 -1 14 12 12 73 -2 48 -8 74 -15 74
-8 0 -12 -24 -12 -73z"/>
<path d="M285 490 l0 -70 47 0 c25 0 53 3 62 6 20 8 21 38 1 54 -11 9 -12 16
-2 31 17 28 -13 49 -67 49 l-41 0 0 -70z m93 33 c3 -20 -1 -23 -32 -23 -32 0
-36 3 -36 26 0 23 3 25 33 22 24 -2 33 -8 35 -25z m2 -48 c20 -24 4 -45 -35
-45 -32 0 -35 2 -35 30 0 26 3 30 29 30 16 0 34 -7 41 -15z"/>
<path d="M900 550 c0 -5 5 -10 11 -10 5 0 7 5 4 10 -3 6 -8 10 -11 10 -2 0 -4
-4 -4 -10z"/>
<path d="M1258 551 c10 -6 13 -26 10 -70 -2 -49 0 -61 12 -61 12 0 15 14 15
70 0 68 -1 70 -25 70 -18 0 -21 -3 -12 -9z"/>
<path d="M1375 490 c0 -56 3 -70 15 -70 12 0 15 14 15 70 0 56 -3 70 -15 70
-12 0 -15 -14 -15 -70z"/>
<path d="M568 513 c-10 -2 -18 -12 -18 -20 0 -14 3 -14 20 2 17 15 26 28 18
24 -2 -1 -11 -3 -20 -6z"/>
<path d="M772 504 c-12 -8 -22 -26 -22 -39 0 -22 32 -55 54 -55 6 0 0 7 -12
16 -12 8 -22 26 -22 39 0 13 10 31 22 39 12 9 18 16 12 16 -5 0 -20 -7 -32
-16z"/>
<path d="M1005 510 c-11 -4 -24 -6 -30 -4 -6 3 -10 -15 -10 -41 0 -34 4 -45
15 -45 12 0 15 9 12 40 -4 38 -3 40 23 40 26 0 27 -2 23 -40 -3 -31 0 -40 12
-40 12 0 15 9 12 40 -5 44 -25 62 -57 50z"/>
<path d="M1167 513 c-15 -4 -16 -7 -6 -19 15 -19 -1 -37 -27 -32 -12 2 -19 12
-18 26 0 12 -3 22 -7 22 -12 0 -20 -33 -10 -43 5 -5 6 -21 0 -40 -6 -20 -5
-35 2 -44 16 -18 64 -16 84 3 22 23 2 44 -41 44 -19 0 -34 5 -34 10 0 6 10 10
23 10 31 0 43 10 51 43 3 15 5 26 4 26 -2 -1 -11 -3 -21 -6z m8 -113 c0 -10
-12 -16 -32 -18 -28 -3 -33 0 -33 18 0 18 5 21 33 18 20 -2 32 -8 32 -18z"/>
<path d="M1705 506 c-16 -11 -17 -17 -7 -29 7 -8 24 -18 38 -21 17 -5 24 -12
20 -21 -3 -8 -1 -15 4 -15 6 0 10 9 10 21 0 13 -10 23 -30 30 -16 6 -30 15
-30 19 0 16 21 23 33 11 6 -6 16 -11 22 -11 10 1 -24 30 -35 30 -3 0 -15 -6
-25 -14z"/>
<path d="M430 491 c-5 -11 -10 -24 -10 -30 0 -15 37 -51 52 -51 7 0 2 7 -10
16 -24 17 -29 53 -10 72 9 9 9 12 0 12 -6 0 -16 -9 -22 -19z"/>
<path d="M498 498 c15 -15 15 -51 0 -66 -9 -9 -9 -12 0 -12 6 0 16 10 23 21
13 25 -2 69 -23 69 -9 0 -9 -3 0 -12z"/>
<path d="M608 465 c3 -29 9 -45 17 -45 7 0 12 8 10 18 -12 59 -16 72 -23 72
-4 0 -6 -20 -4 -45z"/>
<path d="M670 500 c8 -5 11 -22 8 -44 -3 -25 0 -36 9 -36 7 0 10 7 7 15 -4 8
-3 27 0 41 5 19 11 24 26 19 11 -4 20 -2 20 4 0 5 -19 9 -41 9 -24 0 -36 -4
-29 -8z"/>
<path d="M895 465 c0 -33 4 -45 15 -45 12 0 14 10 12 45 -2 25 -9 45 -16 45
-6 0 -11 -18 -11 -45z"/>
<path d="M1446 494 c-21 -21 -20 -40 4 -64 24 -24 38 -25 68 -4 33 23 24 84
-12 84 -6 0 -5 -5 2 -12 17 -17 15 -65 -3 -72 -37 -14 -71 38 -45 69 16 20 6
19 -14 -1z"/>
<path d="M1560 469 c8 -44 26 -63 50 -53 8 4 24 6 35 6 18 -1 20 4 17 43 -3
27 -9 45 -16 45 -8 0 -11 -11 -8 -32 3 -22 0 -35 -13 -44 -28 -20 -45 -6 -45
37 0 26 -4 39 -14 39 -10 0 -12 -9 -6 -41z"/>
<path d="M1800 490 c-23 -43 17 -89 62 -71 22 9 21 10 -8 10 -19 1 -34 7 -38
17 -9 24 -9 24 30 24 28 0 35 4 32 17 -2 9 -10 19 -18 21 -13 5 -13 3 -1 -11
12 -15 10 -17 -19 -17 -28 0 -31 2 -20 15 8 10 9 15 2 15 -6 0 -16 -9 -22 -20z"/>
<path d="M552 458 c-17 -17 -15 -26 11 -39 18 -9 20 -9 10 2 -18 19 -16 28 10
39 21 8 21 9 2 9 -12 1 -26 -4 -33 -11z"/>
<path d="M1690 430 c0 -5 5 -10 10 -10 6 0 10 5 10 10 0 6 -4 10 -10 10 -5 0
-10 -4 -10 -10z"/>
</g>
</svg>
